<?xml version="1.0" standalone="no"?>
<!DOCTYPE svg PUBLIC "-//W3C//DTD SVG 20010904//EN"
 "http://www.w3.org/TR/2001/REC-SVG-20010904/DTD/svg10.dtd">
<svg version="1.0" xmlns="http://www.w3.org/2000/svg"
 width="600.000000pt" height="600.000000pt" viewBox="0 0 600.000000 600.000000"
 preserveAspectRatio="xMidYMid meet">
<metadata>
Created by potrace 1.11, written by Peter Selinger 2001-2013
</metadata>
<g transform="translate(0.000000,600.000000) scale(0.100000,-0.100000)"
fill="#000000" stroke="none">
<path d="M3143 5645 c-18 -8 -33 -19 -33 -25 0 -6 -4 -8 -10 -5 -5 3 -10 -1
-10 -10 0 -11 5 -15 16 -11 12 5 14 1 8 -16 -10 -32 -28 -48 -44 -38 -12 7
-11 12 2 27 10 11 14 24 9 32 -6 10 -10 9 -15 -4 -3 -9 -10 -14 -15 -10 -6 3
-14 -3 -20 -12 -6 -10 -11 -14 -11 -9 0 5 -7 3 -15 -4 -8 -7 -12 -17 -8 -23 3
-5 1 -7 -4 -4 -6 4 -18 -2 -28 -13 -10 -11 -14 -20 -9 -20 5 0 -1 -7 -13 -15
-29 -20 -55 -91 -54 -148 0 -66 66 -179 86 -147 3 6 10 8 15 5 4 -3 11 21 15
53 4 31 18 90 31 130 13 40 22 78 19 83 -4 5 -2 9 4 9 6 0 18 14 26 31 23 44
27 32 10 -31 -25 -94 -39 -248 -25 -265 14 -17 93 -17 121 0 53 33 67 113 40
230 -12 47 -21 118 -21 156 0 77 -5 81 -67 54z"/>
<path d="M3589 5563 c-13 -21 -45 -63 -71 -93 -62 -70 -78 -117 -55 -166 14
-28 21 -34 37 -29 22 7 28 -10 8 -19 -7 -3 -4 -5 6 -3 21 2 46 46 83 141 l24
61 -6 -57 c-3 -32 -16 -87 -29 -124 l-24 -66 35 5 c76 13 121 94 108 192 -6
51 -69 195 -85 195 -4 0 -19 -17 -31 -37z"/>
<path d="M2520 5542 c0 -15 -7 -55 -16 -87 -9 -33 -17 -68 -18 -77 0 -10 -3
-18 -7 -18 -4 0 -15 -20 -25 -45 -34 -91 -6 -182 68 -221 62 -32 69 -17 77
176 l6 135 19 -80 c11 -46 20 -119 20 -172 1 -110 8 -115 72 -49 34 35 43 54
49 94 15 110 -51 233 -178 334 -27 21 -53 38 -58 38 -5 0 -9 -13 -9 -28z"/>
<path d="M1729 5228 c-17 -38 -23 -72 -24 -121 0 -67 1 -70 37 -103 22 -19 48
-34 62 -34 l25 0 -23 53 c-13 28 -26 66 -30 82 -4 17 -9 39 -12 50 -3 11 10
-11 29 -50 19 -38 43 -78 55 -89 21 -18 21 -18 41 15 12 19 21 37 21 41 0 24
-28 69 -80 126 -33 36 -60 69 -60 73 0 25 -20 3 -41 -43z"/>
<path d="M3980 5244 c-63 -17 -103 -40 -95 -55 4 -5 3 -9 -2 -8 -22 4 -32 -4
-47 -35 -19 -40 -20 -64 -5 -103 l10 -28 22 30 c34 47 98 114 130 137 25 18
23 12 -16 -36 -26 -31 -56 -75 -68 -98 -24 -47 -17 -58 42 -58 57 0 94 45 118
145 7 28 21 65 32 83 10 18 19 35 19 38 0 9 -88 2 -140 -12z"/>
<path d="M2192 5227 c-12 -13 -22 -26 -22 -29 0 -3 -15 -22 -34 -42 -19 -20
-50 -66 -68 -103 -30 -61 -33 -76 -33 -154 0 -79 2 -89 29 -123 50 -66 136
-104 122 -53 -17 59 -29 227 -21 292 l8 70 9 -55 c17 -113 40 -216 58 -258 19
-43 19 -43 47 -28 108 56 118 165 29 301 -38 57 -71 128 -81 174 -8 37 -15 38
-43 8z"/>
<path d="M3371 5018 c-6 -28 -27 -86 -46 -129 -38 -84 -43 -125 -20 -169 16
-32 69 -65 90 -56 16 6 35 111 36 202 0 59 2 65 11 44 6 -14 12 -80 12 -147 1
-107 3 -123 17 -123 25 0 87 74 94 113 13 67 -26 163 -100 245 -72 79 -79 81
-94 20z"/>
<path d="M4450 5014 c-139 -30 -256 -115 -280 -204 -9 -32 -9 -54 0 -91 19
-79 31 -79 81 -2 46 71 158 192 197 212 17 9 12 -2 -21 -43 -52 -63 -121 -176
-138 -225 -15 -42 -3 -51 67 -51 63 0 109 28 141 86 27 49 53 168 46 208 -4
20 -2 27 5 22 14 -8 56 70 46 86 -4 7 -3 8 4 4 7 -4 12 -2 12 3 0 15 -81 12
-160 -5z"/>
<path d="M1266 4979 c-22 -5 -42 -12 -44 -14 -3 -2 11 -24 30 -47 19 -24 44
-60 57 -80 24 -40 66 -78 85 -78 7 0 7 3 1 8 -15 10 -67 92 -59 92 10 0 33
-31 44 -58 8 -18 15 -22 33 -18 12 3 16 3 10 0 -7 -3 -13 -10 -13 -15 0 -14
33 -11 58 7 19 13 21 19 11 30 -8 10 -15 12 -23 4 -5 -5 -16 -10 -24 -10 -10
0 -9 5 4 18 16 16 16 17 1 20 -10 2 -15 7 -12 12 3 5 -15 23 -40 41 -54 39
-52 48 4 19 23 -11 47 -18 53 -14 7 4 8 3 4 -4 -10 -16 26 -32 47 -21 19 11
25 -5 6 -16 -6 -5 -4 -12 8 -20 13 -10 20 -11 25 -2 10 18 -2 66 -16 61 -7 -3
-16 10 -21 28 -6 20 -20 38 -37 46 -36 17 -144 24 -192 11z"/>
<path d="M2876 4978 c-10 -31 -16 -112 -8 -99 7 9 12 10 16 2 4 -6 17 -11 29
-12 12 0 17 -3 11 -5 -7 -3 -11 -13 -9 -22 1 -9 0 -11 -2 -4 -5 15 -19 16 -28
2 -3 -5 -11 -10 -16 -10 -6 0 -7 5 -4 10 3 6 1 10 -5 10 -7 0 -9 -7 -6 -16 3
-9 -3 -27 -14 -41 -34 -43 -60 -129 -60 -197 0 -79 25 -120 93 -156 46 -24 49
-24 62 -7 19 26 27 120 23 270 -3 116 -2 125 11 95 25 -63 43 -173 44 -284 2
-99 4 -110 20 -111 10 -1 38 17 61 40 50 51 72 114 62 183 -7 56 -53 161 -76
177 -10 7 -18 15 -19 20 0 4 -4 6 -8 5 -5 -2 -7 -6 -5 -10 1 -5 -7 -8 -19 -8
-18 0 -20 5 -15 35 5 32 2 39 -35 73 -62 56 -98 77 -103 60z m91 -87 c1 -13
-3 -18 -12 -15 -8 3 -11 12 -8 20 7 20 18 17 20 -5z"/>
<path d="M3801 4754 c-24 -36 -75 -93 -113 -127 -109 -96 -147 -181 -115 -257
16 -38 60 -90 76 -90 24 0 127 180 189 330 8 21 9 17 5 -20 -9 -75 -52 -210
-93 -293 -28 -58 -35 -80 -25 -83 21 -8 97 16 137 43 48 33 92 118 86 168 -2
19 0 35 5 35 12 0 1 98 -19 169 -13 46 -79 192 -87 191 -1 0 -22 -30 -46 -66z"/>
<path d="M1678 4805 c-4 -4 3 -28 16 -54 13 -25 31 -69 40 -98 22 -67 63 -103
117 -103 47 0 57 16 36 57 -14 26 -25 40 -96 117 l-26 28 31 -15 c17 -9 58
-45 92 -82 34 -36 67 -63 72 -60 17 11 11 88 -9 121 -27 45 -109 82 -196 90
-38 3 -73 3 -77 -1z"/>
<path d="M4855 4744 c-11 -9 -53 -32 -93 -52 -40 -19 -82 -46 -93 -60 -22 -28
-25 -89 -6 -116 12 -17 16 -15 63 21 27 22 64 56 82 77 17 20 32 34 32 31 0
-14 -71 -112 -104 -144 -20 -19 -36 -39 -36 -43 0 -4 23 -8 51 -8 44 0 55 4
84 33 51 51 76 157 59 246 -7 35 -11 37 -39 15z"/>
<path d="M2446 4638 c-46 -69 -62 -134 -46 -182 12 -38 52 -76 80 -76 16 0 16
4 4 52 -8 29 -13 75 -13 103 1 27 4 39 6 25 9 -51 34 -127 48 -146 13 -18 15
-18 41 8 40 39 36 83 -14 161 -22 34 -43 72 -47 85 -10 33 -21 27 -59 -30z"/>
<path d="M1293 4613 c-4 -21 -7 -81 -7 -133 3 -195 86 -319 217 -322 24 0 53
3 65 7 21 6 18 11 -39 73 -67 73 -152 192 -164 231 -4 15 18 -5 59 -52 78 -89
100 -107 127 -100 21 6 27 -13 7 -20 -14 -4 49 -47 69 -47 6 0 19 20 28 45 37
96 -13 171 -160 240 -49 23 -111 58 -138 78 -26 21 -49 37 -52 37 -2 0 -8 -17
-12 -37z m50 -180 c-7 -2 -21 -2 -30 0 -10 3 -4 5 12 5 17 0 24 -2 18 -5z
m114 -219 c-3 -3 -12 -4 -19 -1 -8 3 -5 6 6 6 11 1 17 -2 13 -5z"/>
<path d="M2076 4505 c-9 -14 -14 -31 -10 -37 4 -6 3 -8 -3 -5 -13 8 -47 -69
-69 -155 -30 -118 -2 -238 68 -291 35 -27 114 -54 124 -44 4 3 -9 46 -29 94
-19 48 -41 115 -48 148 -7 33 -20 65 -28 72 -11 8 -12 12 -3 13 7 0 12 14 13
33 l1 32 15 -42 c9 -27 21 -43 31 -43 14 0 14 -2 3 -9 -12 -8 -10 -20 13 -73
29 -68 91 -168 104 -168 11 0 57 50 71 77 17 34 14 103 -6 120 -10 8 -12 11
-5 8 28 -14 -10 39 -78 111 -37 39 -82 96 -101 127 -19 31 -37 57 -40 57 -4 0
-14 -11 -23 -25z m184 -410 c11 -13 10 -14 -4 -9 -9 3 -16 10 -16 15 0 13 6
11 20 -6z"/>
<path d="M935 4379 c-53 -13 -125 -40 -125 -48 0 -9 93 -87 101 -84 3 1 6 -4
6 -11 0 -22 45 -72 84 -95 38 -21 95 -29 84 -11 -3 6 1 7 10 4 17 -7 55 22 55
42 0 15 -68 64 -155 112 -41 22 -51 30 -30 26 54 -12 109 -34 171 -68 l60 -34
3 40 c2 34 -3 45 -36 78 -56 55 -130 71 -228 49z m116 -242 c-10 -9 -11 -8 -5
6 3 10 9 15 12 12 3 -3 0 -11 -7 -18z"/>
<path d="M4452 4370 c-130 -20 -226 -92 -233 -175 -8 -111 7 -118 82 -40 54
57 130 117 189 150 8 4 -19 -27 -61 -71 -72 -75 -129 -152 -129 -173 0 -16 75
-34 112 -27 55 10 108 75 138 171 7 22 28 66 47 98 19 32 34 60 32 62 -10 9
-129 13 -177 5z"/>
<path d="M3216 4328 c-10 -24 -38 -73 -63 -111 -37 -54 -47 -78 -51 -120 -4
-49 -1 -57 28 -90 18 -21 38 -37 45 -37 17 0 44 65 71 172 l24 93 -5 -100 c-2
-55 -11 -121 -18 -147 -8 -26 -13 -49 -10 -52 3 -2 18 0 34 6 34 12 86 68 95
104 11 43 -3 138 -26 185 -27 53 -89 139 -100 139 -4 0 -15 -19 -24 -42z"/>
<path d="M2668 4312 c-59 -76 -88 -148 -88 -215 0 -68 17 -102 64 -135 58 -40
65 -33 49 51 -7 39 -12 104 -11 142 l3 70 18 -88 c19 -98 44 -167 59 -167 23
0 67 43 78 75 15 44 1 93 -45 165 -20 30 -43 76 -53 103 -9 26 -21 47 -27 47
-6 0 -27 -22 -47 -48z"/>
<path d="M4877 4335 c-52 -18 -85 -51 -99 -97 -6 -21 -9 -40 -7 -42 2 -2 42 9
89 24 47 15 112 30 145 34 l60 5 -92 -33 c-91 -34 -163 -71 -163 -85 0 -4 13
-19 28 -34 58 -56 130 -45 215 32 28 26 74 60 100 75 35 21 45 31 37 40 -18
23 -106 65 -165 81 -71 18 -98 18 -148 0z"/>
<path d="M3571 4138 c-56 -73 -114 -149 -129 -168 -70 -91 -225 -271 -276
-320 -31 -30 -56 -63 -57 -75 0 -11 -3 -14 -6 -7 -3 8 -20 -1 -50 -28 -57 -50
-97 -58 -154 -33 -97 43 -345 229 -564 422 -68 61 -115 87 -115 65 0 -10 38
-55 112 -134 180 -190 222 -230 228 -220 5 8 9 6 13 -5 4 -9 3 -13 -3 -10 -28
17 2 -19 121 -147 217 -232 254 -309 254 -518 0 -110 -3 -130 -22 -166 -45
-84 -131 -134 -231 -134 -106 0 -260 80 -334 174 -70 87 -96 155 -112 294 -7
68 -16 126 -19 129 -13 12 -31 -89 -30 -172 0 -75 6 -104 31 -173 29 -77 82
-176 124 -231 18 -24 18 -25 1 -35 -32 -19 -192 -13 -258 9 -76 24 -170 89
-213 144 -38 51 -41 36 -7 -37 30 -64 106 -142 173 -176 81 -41 248 -102 401
-145 161 -46 214 -73 270 -137 64 -73 93 -159 97 -289 3 -95 0 -125 -25 -226
-57 -230 -195 -501 -394 -772 l-49 -68 -97 7 c-209 14 -526 -37 -826 -133
-175 -55 -467 -174 -461 -188 2 -7 -6 -12 -24 -12 -27 0 -316 -139 -361 -175
-32 -24 -29 -23 214 82 128 55 197 90 198 100 0 9 3 10 5 3 4 -8 51 4 151 38
81 27 149 52 152 56 3 5 20 9 36 11 17 1 66 11 110 22 324 78 792 93 1024 34
93 -24 286 -125 299 -156 2 -4 8 -8 13 -8 10 0 150 -143 175 -178 8 -12 20
-20 25 -17 5 4 9 2 9 -4 0 -23 41 8 110 81 130 141 293 246 435 282 97 24 249
38 415 37 264 -2 455 -30 733 -106 71 -19 133 -32 138 -29 5 3 12 -2 15 -10 3
-9 12 -16 18 -16 22 0 243 -89 539 -219 26 -11 47 -16 47 -12 0 11 -422 221
-500 249 -30 11 -80 31 -110 45 -162 72 -479 162 -696 198 -138 23 -378 30
-491 16 l-62 -8 -46 78 c-110 188 -207 416 -253 598 -19 78 -25 126 -25 215
-1 142 17 197 106 343 35 56 70 113 78 127 8 13 51 73 97 133 45 60 82 112 82
116 0 10 87 107 173 193 90 89 195 158 293 192 38 13 243 68 457 122 354 89
450 119 350 108 -113 -12 -225 -25 -278 -34 -192 -31 -644 -75 -680 -66 -27 7
-28 8 -22 64 3 31 32 136 65 232 63 184 73 209 128 328 19 41 34 76 34 79 0 2
11 28 24 56 97 209 116 251 111 255 -18 18 -133 -176 -289 -485 -129 -255
-221 -419 -284 -503 -104 -139 -273 -286 -354 -308 -72 -20 -116 6 -158 92
-44 89 -63 191 -57 306 9 176 58 286 262 595 73 110 158 243 189 295 31 52 61
102 66 110 32 50 41 73 32 82 -5 5 -48 -42 -111 -124z m-949 -514 c-3 -18 -7
-22 -13 -13 -4 7 -3 19 3 26 15 18 16 17 10 -13z m485 -104 c-3 -21 -17 -40
-17 -22 0 13 11 42 16 42 2 0 3 -9 1 -20z m13 -60 c0 -5 -4 -10 -10 -10 -5 0
-10 5 -10 10 0 6 5 10 10 10 6 0 10 -4 10 -10z m510 -840 c0 -5 -5 -10 -11
-10 -5 0 -7 5 -4 10 3 6 8 10 11 10 2 0 4 -4 4 -10z m-920 -190 c0 -13 -28
-25 -38 -16 -3 4 0 11 8 16 20 13 30 12 30 0z m680 -11 c0 -4 -7 -6 -15 -3 -8
4 -15 10 -15 15 0 4 7 6 15 3 8 -4 15 -10 15 -15z m-415 -429 c3 -5 -1 -10 -9
-10 -8 0 -18 5 -21 10 -3 6 1 10 9 10 8 0 18 -4 21 -10z m-624 -1067 c13 -16
12 -17 -3 -4 -17 13 -22 21 -14 21 2 0 10 -8 17 -17z"/>
<path d="M1736 4083 c-44 -129 0 -253 90 -253 l32 0 -41 80 c-22 44 -38 82
-36 85 3 3 24 -25 47 -61 46 -71 67 -79 90 -32 17 36 7 71 -31 106 -18 17 -54
51 -81 76 -27 25 -50 46 -51 46 -2 0 -10 -21 -19 -47z"/>
<path d="M3978 4094 c-8 -9 -53 -35 -99 -57 -103 -52 -129 -86 -110 -148 7
-21 15 -39 20 -39 16 0 88 58 130 106 l44 49 -24 -44 c-13 -25 -48 -70 -77
-102 l-53 -57 31 -7 c64 -14 130 31 160 110 13 35 16 183 3 196 -5 5 -16 2
-25 -7z"/>
<path d="M1145 3961 c-74 -19 -125 -38 -125 -45 0 -2 28 -33 63 -68 35 -34 88
-102 119 -149 78 -120 136 -162 225 -161 57 0 143 40 143 66 0 30 -165 165
-289 238 -77 45 -71 47 29 13 88 -30 182 -80 273 -146 77 -56 83 -53 74 35 -6
60 -33 120 -69 153 -12 12 -50 34 -83 50 -53 24 -73 28 -175 30 -86 2 -133 -2
-185 -16z"/>
<path d="M2833 3905 c-47 -29 -83 -92 -83 -146 1 -181 248 -240 330 -78 79
153 -97 313 -247 224z"/>
<path d="M4420 3873 c-117 -30 -196 -105 -193 -184 2 -39 18 -79 32 -79 4 0
20 26 35 58 15 32 43 76 62 98 l34 39 -35 -76 c-20 -42 -37 -89 -38 -105 -2
-28 0 -29 37 -28 65 2 106 69 106 170 0 23 5 55 11 72 6 17 9 36 7 41 -1 5
-28 2 -58 -6z"/>
<path d="M5001 3879 c-55 -11 -116 -50 -142 -92 -26 -42 -43 -102 -36 -122 6
-13 14 -12 64 14 81 40 215 81 287 86 l61 5 -53 -19 c-135 -50 -292 -139 -292
-165 0 -14 45 -58 77 -75 28 -14 99 -12 140 5 18 7 75 53 127 102 51 50 114
102 140 117 25 15 46 31 46 36 0 17 -162 88 -235 104 -77 16 -118 17 -184 4z"/>
<path d="M780 3814 c-51 -13 -173 -86 -200 -119 -10 -12 -9 -16 6 -21 59 -21
96 -39 151 -75 93 -61 164 -65 216 -13 44 44 36 60 -39 83 -36 12 -93 25 -126
31 -33 5 -63 12 -66 15 -12 11 157 4 223 -10 38 -8 71 -15 73 -15 8 0 -12 47
-30 73 -39 55 -119 75 -208 51z"/>
<path d="M3560 3693 c-14 -32 -23 -62 -22 -66 1 -5 -1 -6 -6 -3 -15 9 -82
-115 -82 -152 0 -42 22 -84 55 -106 30 -20 40 -16 54 24 5 17 6 28 1 25 -5 -3
-11 -1 -15 5 -3 5 1 10 9 10 21 0 26 11 46 108 l19 87 0 -85 c0 -47 -6 -114
-14 -149 -9 -35 -13 -66 -11 -69 10 -9 64 19 91 48 56 58 51 173 -12 278 -34
57 -71 102 -83 102 -3 0 -17 -26 -30 -57z"/>
<path d="M1948 3701 c-14 -14 -40 -36 -57 -49 -17 -13 -28 -28 -25 -34 4 -6 0
-16 -8 -22 -41 -31 -51 -112 -18 -161 11 -16 20 -25 20 -20 0 6 5 2 11 -7 20
-34 31 -19 27 37 -1 30 1 55 6 55 4 0 6 13 4 29 -2 17 -1 28 4 25 4 -3 8 4 8
16 0 14 -4 19 -12 14 -7 -4 -4 2 7 13 25 26 37 20 25 -13 -11 -28 -11 -103 -1
-149 6 -24 11 -30 31 -27 66 6 87 89 50 197 -11 32 -20 73 -20 92 0 40 -15 41
-52 4z"/>
<path d="M2307 3583 c-81 -43 -152 -118 -168 -175 -8 -33 -7 -49 6 -83 8 -24
24 -50 34 -59 17 -16 19 -12 46 68 15 47 43 109 62 138 19 29 31 44 28 33 -33
-91 -54 -167 -56 -205 -4 -42 -2 -45 23 -48 38 -4 85 23 105 61 24 45 26 307
3 307 -8 0 -46 -17 -83 -37z"/>
<path d="M4620 3434 c-25 -7 -62 -13 -82 -13 -90 -2 -148 -50 -148 -122 0 -30
1 -31 32 -25 18 4 64 22 103 41 l70 34 -38 -33 c-21 -19 -63 -47 -93 -63 -29
-15 -52 -32 -51 -38 7 -20 78 -36 112 -25 42 14 99 74 124 130 23 52 38 131
25 129 -5 -1 -29 -7 -54 -15z"/>
<path d="M1018 3424 c-5 -5 65 -128 82 -144 3 -3 5 -9 5 -15 1 -23 29 -103 50
-145 25 -50 96 -120 121 -120 9 0 13 5 9 13 -4 6 1 3 9 -7 14 -17 16 -17 16
-4 0 26 19 32 40 13 17 -15 24 -16 50 -5 16 7 30 14 30 17 0 2 -9 21 -19 42
-27 51 -90 132 -170 215 -62 65 -64 68 -26 46 77 -44 245 -188 245 -209 0 -4
11 -18 26 -31 21 -21 27 -22 34 -10 6 8 7 33 5 55 -4 29 -3 36 5 25 8 -12 10
-11 10 8 0 24 -28 30 -48 10 -9 -9 -12 -6 -10 14 1 15 5 25 9 22 4 -2 9 13 11
34 4 33 1 41 -32 73 -76 73 -191 109 -345 109 -56 0 -104 -3 -107 -6z m202
-154 c12 -8 11 -10 -7 -10 -13 0 -23 5 -23 10 0 13 11 13 30 0z"/>
<path d="M4062 3340 c-70 -43 -75 -131 -11 -185 68 -57 179 -6 179 83 0 48
-26 91 -65 108 -46 19 -64 18 -103 -6z"/>
<path d="M5165 3351 c-95 -5 -138 -11 -161 -23 -35 -19 -67 -77 -62 -111 3
-20 8 -22 53 -20 28 0 82 12 120 26 39 13 79 28 90 32 l20 7 -20 -17 c-31 -26
-134 -77 -195 -95 -30 -10 -56 -22 -58 -28 -4 -13 49 -42 96 -53 48 -11 99 9
157 63 50 45 105 136 120 201 6 22 4 27 -11 25 -11 -1 -77 -4 -149 -7z m125
-21 c0 -5 -5 -10 -11 -10 -5 0 -7 5 -4 10 3 6 8 10 11 10 2 0 4 -4 4 -10z"/>
<path d="M1751 3255 c-118 -165 -121 -353 -7 -420 24 -14 52 -25 63 -25 21 0
21 1 -4 78 -16 49 -26 109 -29 167 l-4 90 13 -52 c21 -79 66 -195 86 -222 15
-20 21 -21 38 -11 33 21 63 74 63 113 0 44 -28 101 -90 182 -25 33 -54 79 -64
103 -10 23 -22 42 -26 42 -4 0 -21 -20 -39 -45z m159 -299 c0 -3 -4 -8 -10
-11 -5 -3 -10 -1 -10 4 0 6 5 11 10 11 6 0 10 -2 10 -4z m-110 -106 c0 -5 -5
-10 -11 -10 -5 0 -7 5 -4 10 3 6 8 10 11 10 2 0 4 -4 4 -10z"/>
<path d="M3305 3225 c-83 -29 -137 -124 -115 -205 12 -46 51 -95 91 -115 15
-8 52 -15 82 -15 62 0 108 25 144 79 27 40 31 126 8 170 -20 39 -69 78 -113
91 -46 12 -48 12 -97 -5z"/>
<path d="M2673 3059 c-28 -7 -53 -22 -77 -49 -69 -77 -68 -170 4 -242 46 -46
58 -47 62 -6 3 29 28 54 28 28 0 -6 -4 -9 -9 -6 -5 3 -9 -10 -8 -30 l1 -36 57
4 c99 7 159 74 159 176 0 69 -54 143 -115 157 -11 2 -29 6 -40 9 -11 2 -39 0
-62 -5z m82 -89 c7 -12 -12 -40 -26 -40 -10 0 -12 34 -2 43 9 10 21 9 28 -3z
m-88 -152 c-3 -8 -6 -5 -6 6 -1 11 2 17 5 13 3 -3 4 -12 1 -19z"/>
<path d="M4858 2955 c-16 -9 -28 -19 -28 -23 0 -12 79 -85 129 -121 24 -17 41
-31 37 -31 -14 0 -113 54 -157 86 -26 19 -50 34 -54 34 -4 0 -5 -21 -2 -47 9
-81 86 -133 197 -133 32 0 41 3 30 10 -10 7 -4 8 20 4 19 -3 48 -1 64 6 l29
11 -25 27 c-14 15 -42 52 -61 82 -19 30 -46 65 -59 78 -32 29 -85 37 -120 17z"/>
<path d="M4318 2868 c-21 -12 -38 -25 -38 -30 0 -12 46 -21 72 -13 16 4 19 3
9 -3 -10 -7 -2 -16 35 -37 137 -77 222 -149 109 -92 -67 33 -192 77 -221 77
-10 0 -14 -14 -14 -49 0 -91 69 -140 200 -141 41 0 102 -7 135 -14 33 -8 62
-12 64 -10 9 8 -19 98 -49 159 -32 67 -95 135 -145 159 -47 23 -113 20 -157
-6z"/>
<path d="M2100 2815 c-34 -37 -33 -90 4 -121 59 -51 146 -15 146 61 0 77 -97
116 -150 60z"/>
<path d="M1553 2769 c-24 -11 -56 -36 -73 -55 -32 -37 -80 -124 -80 -146 0
-10 30 -13 123 -13 135 0 168 11 187 61 19 48 13 64 -22 64 -31 0 -94 -13
-128 -27 -8 -3 -19 -7 -25 -9 -5 -1 -19 -5 -30 -9 -11 -4 -2 5 20 19 22 15 72
36 110 48 39 12 74 25 78 29 13 10 -44 46 -83 53 -25 5 -47 1 -77 -15z"/>
<path d="M1910 2484 c-44 -19 -74 -47 -113 -104 -16 -25 -43 -59 -60 -77 -16
-17 -26 -36 -22 -43 4 -6 -2 -19 -14 -29 -20 -17 -19 -18 37 -36 167 -53 335
-12 378 92 14 33 19 103 7 103 -3 0 -27 -13 -52 -29 -57 -37 -186 -97 -226
-106 -21 -4 -5 10 51 44 102 63 180 133 169 150 -9 15 -83 51 -105 50 -8 0
-31 -7 -50 -15z"/>
<path d="M1905 722 c-196 -19 -474 -67 -490 -86 -5 -6 -32 -12 -59 -14 -85 -4
-498 -130 -726 -221 -91 -36 -70 -40 37 -7 286 90 608 169 803 197 51 7 78 15
66 18 -26 10 1 29 34 25 14 -2 83 -4 153 -5 105 -1 131 2 146 15 22 20 50 21
57 2 5 -14 21 -15 377 -19 26 0 47 -4 47 -9 0 -4 15 -8 33 -8 86 0 287 -65
442 -143 55 -27 101 -49 103 -48 1 1 15 -10 30 -24 15 -14 34 -25 42 -25 20 1
70 39 51 40 -8 0 -22 -7 -32 -16 -16 -15 -20 -15 -41 0 -12 9 -18 16 -13 16
16 0 -87 100 -150 145 -120 86 -272 144 -425 164 -104 13 -223 13 -215 0 4 -5
2 -9 -4 -9 -5 0 -12 4 -15 8 -3 5 -30 10 -61 11 -44 2 -55 -1 -55 -13 0 -9 -7
-16 -15 -16 -8 0 -12 6 -10 13 5 12 -39 16 -110 9z m-400 -102 c-3 -5 -11 -10
-16 -10 -6 0 -7 5 -4 10 3 6 11 10 16 10 6 0 7 -4 4 -10z"/>
<path d="M3575 714 c-195 -36 -352 -114 -482 -238 -79 -75 -51 -75 100 -1 139
67 263 109 392 132 145 25 655 25 840 -1 276 -38 525 -94 859 -196 92 -28 170
-49 173 -47 6 6 -173 75 -341 132 -267 90 -548 160 -832 206 -174 28 -589 36
-709 13z"/>
<path d="M2490 439 c-58 -4 -130 -10 -160 -13 -30 -3 -100 -8 -155 -11 -223
-13 -543 -35 -590 -42 -27 -4 -54 -6 -59 -4 -5 1 -13 -4 -17 -11 -7 -10 -9
-10 -9 0 0 8 -9 11 -22 8 -13 -3 -84 -8 -158 -11 -147 -6 -713 -43 -745 -49
-47 -8 123 -5 440 8 187 8 428 18 535 22 125 4 198 11 203 18 6 8 10 7 14 -2
4 -10 9 -10 23 3 12 11 20 13 25 6 3 -6 18 -11 33 -10 24 0 25 1 7 9 -18 8
-17 9 8 9 15 1 27 -4 27 -10 0 -5 5 -7 10 -4 6 3 126 8 268 11 141 2 309 6
372 7 111 3 118 2 194 -31 44 -19 85 -35 92 -36 8 -1 17 -5 20 -9 4 -4 72 -7
150 -7 128 0 151 3 209 25 37 13 72 28 78 32 39 25 82 28 272 21 110 -4 308
-10 440 -13 132 -3 260 -7 284 -10 25 -3 50 0 58 6 9 8 13 8 13 0 0 -17 51
-13 74 7 17 14 19 14 8 0 -12 -15 -6 -17 60 -22 155 -12 378 -17 378 -8 0 14
-48 19 -165 17 -58 -1 -105 2 -105 7 0 5 -9 4 -19 -2 -24 -12 -58 -13 -65 -1
-3 4 5 6 18 4 13 -3 27 0 31 7 5 8 -9 11 -51 10 -33 -1 -66 0 -74 3 -20 7
-517 38 -657 40 -62 1 -113 5 -113 9 0 3 -53 9 -117 12 -65 4 -133 9 -152 12
-31 5 -33 4 -28 -17 5 -20 3 -21 -39 -15 -34 4 -43 3 -38 -7 6 -9 5 -9 -7 0
-11 9 -25 6 -65 -10 -28 -12 -59 -28 -68 -36 -13 -11 -43 -13 -153 -7 -137 7
-190 21 -305 82 -28 15 -47 15 -208 3z"/>
<path d="M4886 329 c3 -5 32 -9 65 -9 32 0 59 4 59 9 0 5 -29 9 -65 9 -35 0
-62 -4 -59 -9z"/>
<path d="M5033 324 c11 -11 19 -12 226 -18 122 -3 164 -2 121 4 -101 13 -356
23 -347 14z"/>
</g>
</svg>
